<svg width="39" height="23" viewBox="0 0 39 23" fill="none" xmlns="http://www.w3.org/2000/svg">
<path d="M11.5178 4.00357C17.767 4.00916 23.591 3.98119 29.8403 4.02593C34.5568 4.05887 38.0225 7.31458 37.9999 11.5795C37.9722 15.6599 34.482 18.9547 29.9866 18.9746C20.5763 19.0193 11.6019 18.9914 2 18.9914L2 14.4704L30.2963 14.4704C30.682 14.4705 31.0638 14.3954 31.4201 14.2495C31.7763 14.1035 32.1001 13.8896 32.3727 13.6199C32.6454 13.3501 32.8617 13.0299 33.0092 12.6775C33.1567 12.325 33.2326 11.9473 33.2325 11.5658L33.2325 11.5037C33.2325 10.7333 32.9232 9.99454 32.3725 9.44982C31.8219 8.9051 31.0751 8.59909 30.2963 8.59909L2 8.59909L2 4.00046L11.5178 4.00357Z" fill="#DAD2C2"/>
</svg>
