<svg width="25" height="24" viewBox="0 0 25 24" fill="none" xmlns="http://www.w3.org/2000/svg">
<path d="M0.000872479 23.9941V20.9717H19.708C20.8291 20.9717 21.7391 20.0944 21.7391 19.0118C21.7391 18.4709 21.5118 17.9805 21.1441 17.626C20.7759 17.2716 20.2685 17.0519 19.708 17.0519H12.5017C10.3328 17.0519 8.16335 17.0519 5.99349 17.0485C3.32632 17.0401 1.25506 15.8358 0.431004 13.9828V13.9786C0.174496 13.4036 0.0362079 12.7709 0.0396978 12.086C0.0440602 11.362 0.207214 10.6893 0.505165 10.0874L0.509527 10.0832C1.38593 8.30808 3.42884 7.14375 6.02316 7.13617C7.0505 7.13196 8.19214 7.12775 9.41143 7.12775H13.2372C15.3814 7.12775 17.5953 7.13028 19.6779 7.12944C20.7999 7.12944 21.7073 6.2522 21.7073 5.16953V5.08156C21.7073 3.99889 20.7973 3.12165 19.6761 3.12165H0.000872479V0.00668137C0.000872479 0.00668137 3.23035 0.00668137 3.23035 0.00836514C8.47046 0.000788186 13.7084 -0.00468406 18.9489 0.00583949C22.5008 0.0142583 25.017 2.12276 25.0004 5.05083C24.9961 5.806 24.8211 6.50687 24.4992 7.13239C24.477 7.17616 24.4538 7.22036 24.4298 7.2633C24.4085 7.30202 24.3871 7.34117 24.3635 7.3799C24.3129 7.46788 24.2588 7.55375 24.2012 7.64004C24.1978 7.64509 24.1951 7.6493 24.1917 7.65393C24.0887 7.808 23.8989 8.04415 23.772 8.18011C23.7428 8.21168 23.7135 8.24241 23.6834 8.27356C23.6215 8.33965 23.553 8.40279 23.4876 8.46593C23.3973 8.54885 23.3039 8.62757 23.2062 8.70629C23.194 8.72186 23.1813 8.73028 23.1691 8.73365C23.0963 8.79342 23.0182 8.85193 22.941 8.90329C22.9287 8.91886 22.917 8.92644 22.9004 8.93065C22.7407 9.04514 22.5741 9.14701 22.3948 9.2413C22.3211 9.28508 22.2438 9.32423 22.1623 9.3638C22.048 9.42273 21.9297 9.47408 21.8111 9.5246C21.6113 9.60752 21.3988 9.68203 21.1838 9.75317C20.963 9.8201 20.7393 9.87482 20.5063 9.92197C20.3715 9.95354 20.2367 9.97332 20.0984 9.99311C20.0291 10.0049 19.9593 10.012 19.8908 10.0205C19.8214 10.0318 19.756 10.0403 19.6866 10.0436H19.6299C19.3974 10.0676 19.1605 10.0794 18.9158 10.0794C17.6707 10.0845 16.4253 10.0866 15.1803 10.0878C13.7729 10.0891 12.3661 10.0891 10.9588 10.0882C9.50653 10.0874 8.05472 10.0861 6.60248 10.0849C6.08903 10.0845 5.5651 10.0516 5.05296 10.0933C4.04219 10.175 3.27616 11.0375 3.27616 12.0115C3.27616 12.5541 3.50431 13.0462 3.87206 13.4006C4.24286 13.7584 4.75283 13.9786 5.31601 13.9786H16.4083C17.4064 13.9828 18.4102 13.987 19.4092 13.9942C21.7705 14.0097 23.6747 15.1745 24.5228 16.9138C24.8368 17.5549 25.0044 18.2713 25 19.0383C24.9795 21.766 22.5907 23.9692 19.5112 23.9806C13.068 24.0122 6.6208 23.9928 0 23.9928L0.000872479 23.9941Z" fill="#DAD2C2"/>
</svg>
