<svg width="150" height="35" viewBox="0 0 150 35" fill="none" xmlns="http://www.w3.org/2000/svg">
<path d="M117.728 25.7421C117.728 19.6585 117.707 14.0112 117.75 7.93814C117.785 3.35688 121.064 0.00292969 125.344 0.00292969C129.452 0.0293804 132.772 3.42038 132.793 7.79003C132.839 16.9314 132.81 25.6522 132.81 34.9813H128.256V7.49113C128.257 7.11646 128.181 6.74539 128.034 6.39914C127.888 6.05289 127.672 5.73826 127.401 5.4732C127.129 5.20815 126.807 4.99786 126.452 4.8544C126.097 4.71094 125.717 4.6371 125.333 4.6371H125.27C124.495 4.6378 123.751 4.93882 123.203 5.47398C122.655 6.00914 122.347 6.73466 122.347 7.49113V34.9999H117.715L117.728 25.7421Z" fill="#DAD2C2"/>
<path d="M49.9163 7.75547V27.5935C49.9163 27.9682 49.992 28.3392 50.1391 28.6853C50.2862 29.0314 50.5017 29.3458 50.7735 29.6106C51.0453 29.8754 51.3679 30.0854 51.7229 30.2286C52.0779 30.3717 52.4583 30.4452 52.8425 30.4449H55.6086V34.9997H40.3594V30.4343H43.131C43.5151 30.4346 43.8956 30.3611 44.2506 30.218C44.6056 30.0748 44.9282 29.8649 45.1999 29.6001C45.4717 29.3353 45.6873 29.0208 45.8344 28.6747C45.9815 28.3286 46.0572 27.9576 46.0572 27.5829V7.74488C46.0572 6.98794 45.7489 6.26202 45.2001 5.72678C44.6513 5.19155 43.907 4.89087 43.131 4.89087H40.3594V0.328125H55.6086V4.89087H52.8425C52.4573 4.89087 52.0759 4.96502 51.7201 5.10911C51.3644 5.2532 51.0413 5.46439 50.7695 5.73053C50.4976 5.99667 50.2823 6.31253 50.1359 6.66002C49.9895 7.00751 49.9148 7.37978 49.9163 7.75547Z" fill="#DAD2C2"/>
<path d="M72.6859 7.69506V27.6256C72.6859 30.6781 70.8309 33.1142 67.8993 34.2701C66.6263 34.7583 65.2698 35.006 63.9019 35.0001H60.2109V30.4241H64.9514C65.7332 30.4241 66.4831 30.1212 67.0359 29.582C67.5887 29.0428 67.8993 28.3115 67.8993 27.5489V7.79028C67.8993 7.02749 67.5888 6.29589 67.0361 5.75627C66.4833 5.21665 65.7335 4.91315 64.9514 4.91245H60.2109V0.339112H63.9019C65.271 0.33001 66.6295 0.575064 67.9047 1.06121C70.8309 2.20123 72.6859 4.6453 72.6859 7.69506Z" fill="#DAD2C2"/>
<path d="M137.512 7.69516V27.6257C137.512 30.6782 139.367 33.1143 142.298 34.2702C143.574 34.7563 144.932 35.0014 146.301 34.9923H149.987V30.4163H145.26C144.478 30.4163 143.728 30.1134 143.175 29.5742C142.622 29.035 142.312 28.3037 142.312 27.5411V7.78244C142.312 7.01965 142.622 6.28805 143.175 5.74843C143.728 5.2088 144.478 4.9053 145.26 4.9046H150V0.331299H146.315C144.946 0.322198 143.587 0.567251 142.312 1.0534C139.367 2.20136 137.512 4.6454 137.512 7.69516Z" fill="#DAD2C2"/>
<path d="M113.037 35H108.544V7.41986C108.521 6.68109 108.203 5.98014 107.66 5.46554C107.116 4.95094 106.388 4.66314 105.63 4.66314C104.872 4.66314 104.144 4.95094 103.6 5.46554C103.056 5.98014 102.739 6.68109 102.716 7.41986V17.5029C102.716 20.5359 102.716 23.5707 102.716 26.6072C102.716 30.3394 100.912 33.2384 98.157 34.3916C97.2389 34.7697 96.2498 34.9558 95.2535 34.9381C94.2571 34.9203 93.2756 34.699 92.3724 34.2885C89.7337 33.0638 88.0034 30.2045 87.9926 26.5755C87.9926 25.1365 87.9926 23.5389 87.9926 21.8355V16.4845C87.9926 13.485 87.9926 10.4009 87.9926 7.47278C87.9926 7.09985 87.9172 6.73057 87.7708 6.38605C87.6244 6.04154 87.4098 5.72854 87.1393 5.46496C86.8688 5.20138 86.5477 4.99237 86.1944 4.8499C85.841 4.70742 85.4623 4.63425 85.08 4.6346H84.9498C84.1773 4.6346 83.4365 4.93392 82.8903 5.46667C82.344 5.99943 82.0372 6.72197 82.0372 7.4754V35H77.3753V30.4822C77.3645 23.1501 77.3645 15.8188 77.3753 8.48848C77.3753 3.5184 80.5239 -0.00218961 84.8766 0.0242611C85.9495 0.0232353 87.0083 0.26308 87.9709 0.725211C88.036 0.756952 88.1011 0.788691 88.1634 0.823077C88.2258 0.857463 88.28 0.883907 88.337 0.915648C88.4699 0.987065 88.6082 1.06112 88.7248 1.14312H88.7465C89.0201 1.32145 89.2811 1.51762 89.5275 1.73032L89.6659 1.85463C89.7662 1.93927 89.8584 2.03714 89.9533 2.11913C90.0483 2.20113 90.192 2.38367 90.3086 2.51328C90.3188 2.51886 90.3276 2.52642 90.3346 2.53553C90.3416 2.54463 90.3466 2.55508 90.3493 2.56617C90.4388 2.66771 90.523 2.77364 90.6015 2.88356C90.6224 2.89698 90.637 2.91791 90.6422 2.94178C90.8139 3.16605 90.9689 3.40205 91.1059 3.64799C91.171 3.75115 91.2279 3.85959 91.2876 3.97333C91.3744 4.13468 91.4503 4.2987 91.5263 4.46534C91.6483 4.74572 91.7595 5.04195 91.8652 5.34349C91.971 5.64503 92.047 5.96507 92.1175 6.29041C92.1636 6.47821 92.1934 6.66867 92.2232 6.86176C92.2395 6.95963 92.2503 7.05484 92.2639 7.15271C92.2811 7.24721 92.2929 7.3426 92.2991 7.4384V7.51773C92.3343 7.84901 92.3515 8.18188 92.3507 8.51493C92.3507 10.2571 92.3507 11.9994 92.3507 13.7416C92.3507 15.7113 92.3507 17.6801 92.3507 19.648C92.3507 21.6794 92.3507 23.7073 92.3507 25.7317C92.3507 26.4485 92.3019 27.1812 92.3507 27.898C92.4254 28.5837 92.7587 29.218 93.2859 29.6774C93.8131 30.1369 94.4966 30.3889 95.2037 30.3844C95.9793 30.3837 96.7228 30.0826 97.271 29.5475C97.8192 29.0123 98.1271 28.2868 98.1271 27.5303V12.0117C98.1271 10.6151 98.1271 9.21057 98.1515 7.81133C98.1732 4.50764 99.9062 1.84405 102.491 0.669642C103.479 0.217005 104.559 -0.0117482 105.65 0.000464501C109.718 0.0295603 112.972 3.37293 112.997 7.67116C113.065 16.7094 113.037 25.7423 113.037 35Z" fill="#DAD2C2"/>
<path d="M35.6702 34.9997H31.1765V7.41952C31.1534 6.68075 30.8363 5.9798 30.2923 5.4652C29.7484 4.9506 29.0203 4.6628 28.2625 4.6628C27.5047 4.6628 26.7767 4.9506 26.2327 5.4652C25.6888 5.9798 25.3717 6.68075 25.3486 7.41952V17.5025C25.3486 20.5355 25.3486 23.5703 25.3486 26.6069C25.335 30.3391 23.5451 33.238 20.7898 34.3913C19.8717 34.7693 18.8826 34.9555 17.8863 34.9377C16.8899 34.92 15.9085 34.6987 15.0052 34.2882C12.3665 33.0635 10.6362 30.2042 10.6254 26.5751C10.6254 25.1362 10.6254 23.5386 10.6254 21.8351V16.4842C10.6254 13.4847 10.6254 10.4005 10.6254 7.47245C10.6254 7.09951 10.55 6.73023 10.4036 6.38571C10.2572 6.0412 10.0426 5.7282 9.77215 5.46462C9.50165 5.20104 9.18053 4.99203 8.82717 4.84956C8.47381 4.70708 8.09513 4.63391 7.71276 4.63426H7.5826C7.19988 4.63391 6.82084 4.70714 6.46715 4.84975C6.11346 4.99236 5.79204 5.20157 5.52129 5.4654C5.25054 5.72922 5.03577 6.04249 4.88922 6.38733C4.74268 6.73216 4.66726 7.10178 4.66726 7.47506V34.9997H0.00813584V30.4819C-0.00271195 23.1498 -0.00271195 15.8185 0.00813584 8.48814C0.00813584 3.51806 3.15399 -0.00252817 7.50937 0.0239225C8.58229 0.0228967 9.64106 0.262741 10.6037 0.724872C10.6688 0.756613 10.7339 0.788353 10.7962 0.822738C10.8586 0.857124 10.9129 0.883569 10.9698 0.915309C11.1 0.986726 11.241 1.06078 11.3576 1.14278H11.3793C11.6525 1.32177 11.9134 1.51791 12.1604 1.72998L12.2987 1.85429C12.399 1.93893 12.4912 2.0368 12.5861 2.1188C12.6811 2.20079 12.8248 2.38333 12.9414 2.51294C12.9614 2.5249 12.9759 2.5438 12.9821 2.56583C13.0716 2.66737 13.1558 2.7733 13.2343 2.88323C13.2552 2.89664 13.2698 2.91757 13.275 2.94144C13.4467 3.16571 13.6017 3.40171 13.7387 3.64765C13.8038 3.75081 13.8607 3.85925 13.9204 3.97299C14.0072 4.13434 14.0831 4.29836 14.1591 4.465C14.2811 4.74538 14.3923 5.04161 14.4981 5.34315C14.6038 5.64469 14.6798 5.96473 14.7503 6.29007C14.7964 6.47787 14.8262 6.66833 14.856 6.86142C14.8723 6.95929 14.8831 7.0545 14.8967 7.15237C14.914 7.24687 14.9257 7.34226 14.932 7.43806V7.51739C14.9671 7.84867 14.9843 8.18154 14.9835 8.51459C14.9835 10.2568 14.9835 11.999 14.9835 13.7412C14.9835 15.7109 14.9835 17.6797 14.9835 19.6477C14.9835 21.6791 14.9835 23.707 14.9835 25.7313C14.9835 26.4481 14.9347 27.1808 14.997 27.8977C15.0711 28.5832 15.4038 29.2173 15.9306 29.6769C16.4574 30.1364 17.1406 30.3885 17.8473 30.384C18.6206 30.3862 19.3633 30.0896 19.9131 29.5593C20.4629 29.029 20.7752 28.308 20.7816 27.5538V12.0352C20.7816 10.6386 20.7816 9.23406 20.8033 7.83482C20.8277 4.53113 22.558 1.86754 25.1424 0.693133C26.1303 0.240234 27.2104 0.0114348 28.3018 0.0239225C32.3698 0.0530183 35.6241 3.39639 35.6485 7.69462C35.6973 16.709 35.6702 25.7419 35.6702 34.9997Z" fill="#DAD2C2"/>
</svg>
