<svg xmlns="http://www.w3.org/2000/svg" width="109" height="110" viewBox="0 0 109 110" stroke="#1E1E1E" strokeWidth="1px" fill="DAD2C2">
  <path d="M108.976 110H95.2478V23.2903C95.2651 22.1058 95.0477 20.9296 94.6081 19.8302C94.1685 18.7308 93.5156 17.7302 92.6874 16.8864C91.8591 16.0426 90.872 15.3726 89.7834 14.9152C88.6949 14.4579 87.5266 14.2223 86.3466 14.2223C85.1666 14.2223 83.9983 14.4579 82.9097 14.9152C81.8212 15.3726 80.8341 16.0426 80.0058 16.8864C79.1775 17.7302 78.5247 18.7308 78.0851 19.8302C77.6455 20.9296 77.4281 22.1058 77.4454 23.2903V54.9959C77.4454 64.5421 77.4402 74.0882 77.43 83.6343C77.3918 95.3679 71.9216 104.483 63.505 108.109H63.486C60.6809 109.298 57.6586 109.884 54.6143 109.828C51.5699 109.771 48.5711 109.075 45.8115 107.783L45.7924 107.764C37.7296 103.908 32.441 94.9188 32.4085 83.5057C32.3894 78.9834 32.3703 73.9602 32.3703 68.5973V51.7636C32.3703 42.3294 32.3818 32.5882 32.3703 23.4247C32.3703 22.2517 32.14 21.0901 31.6927 20.0065C31.2453 18.9229 30.5896 17.9384 29.763 17.1093C28.9364 16.2802 27.9552 15.6228 26.8754 15.1746C25.7956 14.7264 24.6384 14.4962 23.47 14.4973H23.078C20.7175 14.4973 18.4537 15.4386 16.7846 17.1143C15.1155 18.79 14.1777 21.0626 14.1777 23.4324V110H0.0290449V95.796C-0.00537081 72.7369 -0.00920598 49.6822 0.0175618 26.6321C0.0558015 11.0038 9.63487 -0.0676055 22.9327 0.00533403C26.2113 0.00104748 29.4467 0.755749 32.3875 2.21079C32.5787 2.30868 32.7871 2.40275 32.9821 2.516C33.1772 2.62925 33.3359 2.70795 33.5137 2.80776C33.9114 3.03042 34.3033 3.26843 34.6933 3.5218L34.7584 3.5621C35.5946 4.12337 36.3924 4.74024 37.1464 5.4086C37.2898 5.5372 37.4294 5.6658 37.5728 5.79249C37.873 6.06505 38.1598 6.36832 38.4447 6.65432C38.8271 7.04973 39.1789 7.46245 39.5364 7.89241C39.5945 7.93175 39.6381 7.98901 39.6607 8.05554C39.9322 8.37609 40.198 8.71967 40.4255 9.05941C40.4879 9.10101 40.5323 9.16482 40.5497 9.23796C41.0721 9.94496 41.5436 10.6884 41.9608 11.4626C42.152 11.787 42.3432 12.1267 42.5172 12.4857C42.7849 12.9886 43.0181 13.5087 43.2476 14.0308C43.63 14.91 43.9626 15.8428 44.2858 16.791C44.6089 17.7392 44.8383 18.7469 45.0506 19.7719C45.192 20.365 45.2839 20.9563 45.3737 21.5647C45.4253 21.8718 45.4597 22.177 45.498 22.4784C45.5509 22.7761 45.586 23.0767 45.6031 23.3786V23.6281C45.7124 24.6719 45.766 25.7208 45.7637 26.7703C45.7892 32.2484 45.8026 37.7272 45.8039 43.2066C45.8039 49.3988 45.8039 55.5904 45.8039 61.7813C45.8039 68.1692 45.7988 74.5578 45.7886 80.947C45.7886 83.2082 45.6375 85.5115 45.8268 87.765C46.1978 92.2124 50.1154 95.5829 54.5398 95.5829C56.9099 95.5814 59.1825 94.6351 60.8579 92.9521C62.5333 91.269 63.4745 88.987 63.4745 86.6075V37.8033C63.4936 33.4116 63.5127 28.9968 63.5471 24.5994C63.6178 14.2093 68.9007 5.8328 76.8087 2.10137C79.8266 0.680543 83.1253 -0.0372846 86.4584 0.00149136C98.8481 0.091706 108.855 10.6027 108.909 24.1502C109.062 52.5007 108.976 80.8684 108.976 110Z" fill="#DAD2C2"/>
</svg>