<svg xmlns="http://www.w3.org/2000/svg" version="1.1" xmlns:xlink="http://www.w3.org/1999/xlink" xmlns:svgjs="http://svgjs.dev/svgjs" width="41" height="41"><svg width="41" height="41" viewBox="0 0 41 41" fill="none" xmlns="http://www.w3.org/2000/svg">
<path d="M40.9909 41H35.8272V8.68094C35.8337 8.23943 35.7519 7.80104 35.5865 7.39127C35.4212 6.98149 35.1756 6.60851 34.8641 6.29401C34.5525 5.97951 34.1812 5.72978 33.7717 5.55931C33.3623 5.38884 32.9229 5.30105 32.479 5.30105C32.0351 5.30105 31.5957 5.38884 31.1862 5.55931C30.7768 5.72978 30.4055 5.97951 30.0939 6.29401C29.7824 6.60851 29.5368 6.98149 29.3715 7.39127C29.2061 7.80104 29.1243 8.23943 29.1308 8.68094V20.4985C29.1308 24.0566 29.1289 27.6147 29.1251 31.1728C29.1107 35.5462 27.0531 38.9438 23.8872 40.2953H23.88C22.8249 40.7385 21.6881 40.9567 20.543 40.9358C19.3979 40.9148 18.2699 40.6552 17.2319 40.1737L17.2247 40.1665C14.1919 38.7292 12.2026 35.3788 12.1904 31.1249C12.1832 29.4393 12.176 27.567 12.176 25.5681V19.2937C12.176 15.7773 12.1803 12.1465 12.176 8.73101C12.176 8.2938 12.0894 7.86087 11.9211 7.45698C11.7528 7.05308 11.5062 6.68614 11.1953 6.37712C10.8843 6.06809 10.5153 5.82304 10.1091 5.65599C9.70294 5.48893 9.26767 5.40315 8.82817 5.40352H8.68073C7.79283 5.40352 6.94131 5.75441 6.31347 6.37897C5.68563 7.00353 5.33291 7.85061 5.33291 8.73388V41H0.0109252V35.7058C-0.00202021 27.111 -0.0034628 18.5179 0.00660582 9.9265C0.0209896 4.10143 3.62412 -0.0251984 8.62607 0.00198814C9.85929 0.000390424 11.0763 0.281688 12.1824 0.824022C12.2544 0.86051 12.3328 0.895572 12.4061 0.937783C12.4795 0.979994 12.5392 1.00933 12.6061 1.04653C12.7556 1.12952 12.9031 1.21823 13.0498 1.31267L13.0743 1.32769C13.3888 1.53689 13.6889 1.76682 13.9725 2.01593C14.0265 2.06387 14.079 2.1118 14.1329 2.15902C14.2458 2.26061 14.3537 2.37365 14.4608 2.48025C14.6047 2.62763 14.737 2.78146 14.8715 2.94172C14.8933 2.95638 14.9097 2.97772 14.9182 3.00252C15.0204 3.122 15.1203 3.25006 15.2059 3.37669C15.2294 3.39219 15.2461 3.41598 15.2527 3.44324C15.4491 3.70676 15.6265 3.98384 15.7834 4.27242C15.8553 4.39332 15.9273 4.51996 15.9927 4.65375C16.0934 4.84119 16.1811 5.03508 16.2674 5.22968C16.4113 5.55735 16.5364 5.90504 16.6579 6.25846C16.7795 6.61189 16.8658 6.9875 16.9456 7.36954C16.9988 7.59061 17.0334 7.81097 17.0672 8.03776C17.0866 8.15223 17.0995 8.26598 17.1139 8.37831C17.1338 8.48927 17.147 8.60131 17.1535 8.71384V8.80685C17.1946 9.19589 17.2147 9.58683 17.2139 9.97801C17.2235 12.0199 17.2285 14.062 17.229 16.1043C17.229 18.4123 17.229 20.72 17.229 23.0276C17.229 25.4085 17.2271 27.7897 17.2232 30.1712C17.2232 31.014 17.1664 31.8725 17.2376 32.7124C17.3771 34.3701 18.8508 35.6264 20.515 35.6264C21.4065 35.6258 22.2613 35.2731 22.8915 34.6458C23.5217 34.0184 23.8757 33.1679 23.8757 32.281V14.0903C23.8829 12.4534 23.8901 10.8079 23.903 9.16885C23.9296 5.2962 25.9168 2.17404 28.8913 0.783238C30.0265 0.253657 31.2673 -0.013897 32.5211 0.00055587C37.1814 0.0341813 40.9456 3.95191 40.9658 9.00145C41.0233 19.5684 40.9909 30.1418 40.9909 41Z" fill="#DAD2C2"></path>
<path d="M40.9909 41H35.8272V8.68094C35.8337 8.23943 35.7519 7.80104 35.5865 7.39127C35.4212 6.98149 35.1756 6.60851 34.8641 6.29401C34.5525 5.97951 34.1812 5.72978 33.7717 5.55931C33.3623 5.38884 32.9229 5.30105 32.479 5.30105C32.0351 5.30105 31.5957 5.38884 31.1862 5.55931C30.7768 5.72978 30.4055 5.97951 30.0939 6.29401C29.7824 6.60851 29.5368 6.98149 29.3715 7.39127C29.2061 7.80104 29.1243 8.23943 29.1308 8.68094V20.4985C29.1308 24.0566 29.1289 27.6147 29.1251 31.1728C29.1107 35.5462 27.0531 38.9438 23.8872 40.2953H23.88C22.8249 40.7385 21.6881 40.9567 20.543 40.9358C19.3979 40.9148 18.2699 40.6552 17.2319 40.1737L17.2247 40.1665C14.1919 38.7292 12.2026 35.3788 12.1904 31.1249C12.1832 29.4393 12.176 27.567 12.176 25.5681V19.2937C12.176 15.7773 12.1803 12.1465 12.176 8.73101C12.176 8.2938 12.0894 7.86087 11.9211 7.45698C11.7528 7.05308 11.5062 6.68614 11.1953 6.37712C10.8843 6.06809 10.5153 5.82304 10.1091 5.65599C9.70294 5.48893 9.26767 5.40315 8.82817 5.40352H8.68073C7.79283 5.40352 6.94131 5.75441 6.31347 6.37897C5.68563 7.00353 5.33291 7.85061 5.33291 8.73388V41H0.0109252V35.7058C-0.00202021 27.111 -0.0034628 18.5179 0.00660582 9.9265C0.0209896 4.10143 3.62412 -0.0251984 8.62607 0.00198814C9.85929 0.000390424 11.0763 0.281688 12.1824 0.824022C12.2544 0.86051 12.3328 0.895572 12.4061 0.937783C12.4795 0.979994 12.5392 1.00933 12.6061 1.04653C12.7556 1.12952 12.9031 1.21823 13.0498 1.31267L13.0743 1.32769C13.3888 1.53689 13.6889 1.76682 13.9725 2.01593C14.0265 2.06387 14.079 2.1118 14.1329 2.15902C14.2458 2.26061 14.3537 2.37365 14.4608 2.48025C14.6047 2.62763 14.737 2.78146 14.8715 2.94172C14.8933 2.95638 14.9097 2.97772 14.9182 3.00252C15.0204 3.122 15.1203 3.25006 15.2059 3.37669C15.2294 3.39219 15.2461 3.41598 15.2527 3.44324C15.4491 3.70676 15.6265 3.98384 15.7834 4.27242C15.8553 4.39332 15.9273 4.51996 15.9927 4.65375C16.0934 4.84119 16.1811 5.03508 16.2674 5.22968C16.4113 5.55735 16.5364 5.90504 16.6579 6.25846C16.7795 6.61189 16.8658 6.9875 16.9456 7.36954C16.9988 7.59061 17.0334 7.81097 17.0672 8.03776C17.0866 8.15223 17.0995 8.26598 17.1139 8.37831C17.1338 8.48927 17.147 8.60131 17.1535 8.71384V8.80685C17.1946 9.19589 17.2147 9.58683 17.2139 9.97801C17.2235 12.0199 17.2285 14.062 17.229 16.1043C17.229 18.4123 17.229 20.72 17.229 23.0276C17.229 25.4085 17.2271 27.7897 17.2232 30.1712C17.2232 31.014 17.1664 31.8725 17.2376 32.7124C17.3771 34.3701 18.8508 35.6264 20.515 35.6264C21.4065 35.6258 22.2613 35.2731 22.8915 34.6458C23.5217 34.0184 23.8757 33.1679 23.8757 32.281V14.0903C23.8829 12.4534 23.8901 10.8079 23.903 9.16885C23.9296 5.2962 25.9168 2.17404 28.8913 0.783238C30.0265 0.253657 31.2673 -0.013897 32.5211 0.00055587C37.1814 0.0341813 40.9456 3.95191 40.9658 9.00145C41.0233 19.5684 40.9909 30.1418 40.9909 41Z" fill="#1E1E1E"></path>
</svg><style>@media (prefers-color-scheme: light) { :root { filter: none; } }
@media (prefers-color-scheme: dark) { :root { filter: none; } }
</style></svg>